#!OML:ASF H:\Not Pregnant\Project 1\Capture day 1\Session 1\non-pregnant.ASF
:FULLY-SPECIFIED
:DEGREES
1081
root -6.81902 16.6541 -17.101 375.521 -13.9706 -4.19115
lowerback -1.90335 2.05456 6.06962
upperback -8.42193 2.89609 0.140152
thorax -7.49143 1.0163 -3.36483
lowerneck 14.0292 -8.00464 -32.0966
upperneck 0.807656 -16.9606 38.1562
head 4.57808 -10.0125 19.4529
rclavicle -3.23274e-014 6.83322e-015
rhumerus -41.0439 -8.17372 -72.1447
rradius 28.7959
rwrist 17.9673
rhand -10.6635 -4.15413
rfingers 7.12502
rthumb 15.3446 -33.5648
lclavicle -3.23274e-014 6.83322e-015
lhumerus -48.256 -1.36287 86.8574
lradius 36.797
lwrist 39.3978
lhand -13.821 -10.1396
lfingers 7.12502
lthumb 12.3017 19.4785
rfemur -23.985 -13.3123 28.8481
rtibia 32.9396
rfoot -20.7434 -6.63105
rtoes -15.6741
lfemur -28.5333 7.31149 -22.3027
ltibia 38.6385
lfoot -22.3645 0.957638
ltoes -0.887714
1082
root -6.83292 16.652 -17.0775 375.452 -13.2565 -4.17864
lowerback -2.06723 1.99077 5.99174
upperback -8.44453 2.80188 0.200714
thorax -7.4359 0.979363 -3.24824
lowerneck 14.275 -8.0343 -32.0959
upperneck 0.762522 -17.0603 38.1345
head 4.55802 -10.0824 19.4394
rclavicle -1.29148e-014 1.65488e-014
rhumerus -40.9504 -8.3359 -72.1059
rradius 29.1165
rwrist 17.7965
rhand -10.7849 -4.12021
rfingers 7.12502
rthumb 15.2277 -33.5398
lclavicle -1.29148e-014 1.65488e-014
lhumerus -48.3025 -1.34317 87.031
lradius 36.4178
lwrist 39.1959
lhand -13.8169 -10.142
lfingers 7.12502
lthumb 12.3056 19.4759
rfemur -23.7519 -13.54 28.9281
rtibia 32.872
rfoot -20.7595 -7.09952
rtoes -15.7833
lfemur -28.2474 6.77112 -22.1353
ltibia 38.3748
lfoot -22.4313 0.785312
ltoes -0.403328
1083
root -6.84667 16.6502 -17.0545 375.377 -12.5422 -4.15875
lowerback -2.23262 1.92017 5.90177
upperback -8.45648 2.6977 0.255608
thorax -7.36848 0.938642 -3.1307
lowerneck 14.5229 -8.06738 -32.0861
upperneck 0.70491 -17.1611 38.1147
head 4.53393 -10.1529 19.4243
rclavicle 5.2049e-014 1.2921e-014
rhumerus -40.837 -8.51489 -72.0935
rradius 29.4366
rwrist 17.6321
rhand -10.934 -4.06155
rfingers 7.12502
rthumb 15.084 -33.492
lclavicle 5.2049e-014 1.2921e-014
lhumerus -48.3043 -1.32915 87.1852
lradius 35.9841
lwrist 38.9859
lhand -13.8243 -10.145
lfingers 7.12502
lthumb 12.2985 19.4733
rfemur -23.5159 -13.7671 29.001
rtibia 32.8028
rfoot -20.7718 -7.57036
rtoes -15.8892
lfemur -28.0095 6.27466 -21.9756
ltibia 38.1689
lfoot -22.4643 0.574852
ltoes -0.146678
1084
root -6.86051 16.6487 -17.032 375.295 -11.8334 -4.13001
lowerback -2.38173 1.8423 5.7957
upperback -8.46798 2.58463 0.304995
thorax -7.31059 0.893965 -3.01079
lowerneck 14.7653 -8.10454 -32.0674
upperneck 0.651969 -17.265 38.0876
head 4.51147 -10.2241 19.4021
rclavicle -6.20193e-015 1.34552e-014
rhumerus -40.7176 -8.72052 -72.0953
rradius 29.7461
rwrist 17.4946
rhand -11.0983 -3.95895
rfingers 7.12502
rthumb 14.9258 -33.4012
lclavicle -6.20193e-015 1.34552e-014
lhumerus -48.2808 -1.31539 87.3138
lradius 35.5033
lwrist 38.7588
lhand -13.8357 -10.1413
lfingers 7.12502
lthumb 12.2875 19.4777
rfemur -23.2802 -13.9823 29.0637
rtibia 32.7393
rfoot -20.7826 -8.04921
rtoes -15.9968
lfemur -27.8195 5.83709 -21.831
ltibia 38.0232
lfoot -22.468 0.307645
ltoes -0.0197178
1085
root -6.87406 16.6469 -17.0092 375.2 -11.1324 -4.0873
lowerback -2.52778 1.75553 5.68035
upperback -8.4681 2.45918 0.347201
thorax -7.24255 0.843914 -2.89323
lowerneck 14.995 -8.133 -32.0632
upperneck 0.607158 -17.3581 38.0703
head 4.49222 -10.2896 19.3908
rclavicle 4.43694e-014 1.37037e-014
rhumerus -40.5829 -8.95053 -72.1123
rradius 30.0451
rwrist 17.3765
rhand -11.266 -3.86861
rfingers 7.12502
rthumb 14.7643 -33.3228
lclavicle 4.43694e-014 1.37037e-014
lhumerus -48.2245 -1.28886 87.4087
lradius 34.9867
lwrist 38.5128
lhand -13.8336 -10.1139
lfingers 7.12502
lthumb 12.2896 19.505
rfemur -23.0405 -14.194 29.1058
rtibia 32.6934
rfoot -20.8008 -8.52988
rtoes -16.107
lfemur -27.6576 5.44223 -21.7072
ltibia 37.9322
lfoot -22.4522 -0.015162
ltoes 0.0350215
1086
root -6.88737 16.6444 -16.9865 375.096 -10.4522 -4.03329
lowerback -2.66173 1.66495 5.54857
upperback -8.46184 2.32911 0.385893
thorax -7.17459 0.792502 -2.77086
lowerneck 15.1971 -8.16461 -32.0643
upperneck 0.580633 -17.4531 38.0481
head 4.48386 -10.3535 19.3758
rclavicle -1.28791e-014 9.57894e-015
rhumerus -40.429 -9.21908 -72.1303
rradius 30.3222
rwrist 17.2968
rhand -11.4053 -3.79788
rfingers 7.12502
rthumb 14.6301 -33.2618
lclavicle -1.28791e-014 9.57894e-015
lhumerus -48.152 -1.25275 87.4846
lradius 34.4539
lwrist 38.222
lhand -13.8465 -10.0648
lfingers 7.12502
lthumb 12.2771 19.5548
rfemur -22.8075 -14.3878 29.1286
rtibia 32.6739
rfoot -20.8273 -9.0128
rtoes -16.2201
lfemur -27.5203 5.08915 -21.602
ltibia 37.8869
lfoot -22.4301 -0.379821
ltoes 0.0268397
1087
root -6.90047 16.641 -16.9644 374.991 -9.78437 -3.96646
lowerback -2.77987 1.56968 5.40152
upperback -8.45414 2.19363 0.418244
thorax -7.11409 0.738816 -2.64741
lowerneck 15.3747 -8.20136 -32.0673
upperneck 0.560538 -17.5511 38.0265
head 4.48347 -10.4168 19.3588
rclavicle -3.31598e-014 -1.97356e-014
rhumerus -40.2637 -9.52592 -72.1508
rradius 30.5826
rwrist 17.2474
rhand -11.5047 -3.72855
rfingers 7.12502
rthumb 14.5342 -33.1994
lclavicle -3.31598e-014 -1.97356e-014
lhumerus -48.0657 -1.20458 87.5325
lradius 33.9109
lwrist 37.888
lhand -13.848 -9.98852
lfingers 7.12502
lthumb 12.2757 19.6312
rfemur -22.5947 -14.5603 29.1358
rtibia 32.6863
rfoot -20.862 -9.50913
rtoes -16.3305
lfemur -27.4087 4.76214 -21.514
ltibia 37.8746
lfoot -22.407 -0.766221
ltoes -0.0604455
1088
root -6.91306 16.6368 -16.9426 374.888 -9.13544 -3.89108
lowerback -2.88691 1.47506 5.24905
upperback -8.44351 2.05946 0.441259
thorax -7.05573 0.685617 -2.53145
lowerneck 15.5332 -8.24235 -32.0691
upperneck 0.543274 -17.6509 38.0083
head 4.48866 -10.4796 19.3415
rclavicle 7.80696e-015 9.15031e-015
rhumerus -40.0924 -9.85923 -72.1852
rradius 30.8369
rwrist 17.1943
rhand -11.5708 -3.69348
rfingers 7.12502
rthumb 14.4706 -33.1689
lclavicle 7.80696e-015 9.15031e-015
lhumerus -47.9702 -1.16605 87.5626
lradius 33.3744
lwrist 37.5165
lhand -13.8467 -9.89528
lfingers 7.12502
lthumb 12.2769 19.7243
rfemur -22.4013 -14.7081 29.1291
rtibia 32.73
rfoot -20.9088 -10.0112
rtoes -16.4199
lfemur -27.3123 4.45215 -21.44
ltibia 37.8821
lfoot -22.3909 -1.15288
ltoes -0.194653
1089
root -6.925 16.632 -16.9211 374.792 -8.50162 -3.80773
lowerback -2.98584 1.37801 5.09124
upperback -8.43501 1.92265 0.45887
thorax -7.00383 0.630869 -2.4187
lowerneck 15.684 -8.2799 -32.0752
upperneck 0.528003 -17.7451 37.9931
head 4.49442 -10.5391 19.3275
rclavicle -8.49649e-015 2.29596e-014
rhumerus -39.918 -10.1992 -72.2383
rradius 31.084
rwrist 17.1173
rhand -11.6171 -3.66651
rfingers 7.12502
rthumb 14.426 -33.1451
lclavicle -8.49649e-015 2.29596e-014
lhumerus -47.8743 -1.12243 87.5716
lradius 32.8518
lwrist 37.1127
lhand -13.8365 -9.772
lfingers 7.12502
lthumb 12.2868 19.847
rfemur -22.2321 -14.833 29.1124
rtibia 32.7997
rfoot -20.9618 -10.5273
rtoes -16.5084
lfemur -27.2295 4.15285 -21.3809
ltibia 37.8977
lfoot -22.3899 -1.52942
ltoes -0.355855
